<svg width="68" height="68" viewBox="0 0 68 68" fill="none" xmlns="http://www.w3.org/2000/svg">
<circle cx="33.9348" cy="33.9348" r="33.9348" fill="white"/>
<path d="M22.6563 44.499C20.5455 44.4998 18.4567 44.9285 16.5162 45.7591V20.4571C18.8959 19.0264 21.6924 18.4503 24.4439 18.8238C27.1953 19.1974 29.7369 20.4984 31.649 22.5118L32.7147 23.6252V48.1871C29.9023 45.8091 26.3393 44.5026 22.6563 44.499ZM52.3233 45.7591C49.664 44.6202 46.7402 44.244 43.8793 44.6729C41.0184 45.1017 38.3333 46.3186 36.1249 48.1871V23.6252L37.1922 22.5118C39.1045 20.4993 41.6458 19.199 44.3967 18.8255C47.1476 18.4519 49.9436 19.0275 52.3233 20.4571V45.7591Z" fill="#8BC5CD"/>
</svg>
