<svg width="70" height="70" viewBox="0 0 70 70" fill="none" xmlns="http://www.w3.org/2000/svg">
<circle cx="35" cy="35" r="35" fill="white"/>
<path d="M52.62 31.9951L37.4006 17.957C36.7347 17.3418 35.8601 17 34.952 17C34.0439 17 33.1693 17.3418 32.5034 17.957L17.38 31.9951C17.2045 32.1588 17.0823 32.3712 17.0294 32.6049C16.9765 32.8385 16.9953 33.0826 17.0832 33.3055C17.1711 33.5284 17.3242 33.7198 17.5227 33.855C17.7211 33.9902 17.9557 34.0629 18.1961 34.0638H20.5967V48.4128C20.5967 49.3642 20.9761 50.2766 21.6514 50.9493C22.3266 51.6221 23.2425 52 24.1975 52H45.8025C46.7575 52 47.6734 51.6221 48.3486 50.9493C49.0239 50.2766 49.4033 49.3642 49.4033 48.4128V34.0638H51.8039C52.0443 34.0629 52.2789 33.9902 52.4773 33.855C52.6758 33.7198 52.8289 33.5284 52.9168 33.3055C53.0047 33.0826 53.0235 32.8385 52.9706 32.6049C52.9177 32.3712 52.7955 32.1588 52.62 31.9951Z" fill="#8BC5CD"/>
</svg>
